<svg version="1.1" xmlns="http://www.w3.org/2000/svg" xmlns:xlink="http://www.w3.org/1999/xlink" x="0px" y="0px"
	 viewBox="0 0 50 50" style="enable-background:new 0 0 50 50; fill: #C86D38;" xml:space="preserve">
<g>
	<rect x="5" y="25.6" width="40" height="0.8"/>
	<g>
		<path d="M16.9,44.7l-0.1-1.3h-0.1c-0.6,0.8-1.7,1.5-3.1,1.5c-2.1,0-3.1-1.4-3.1-2.9c0-2.5,2.2-3.8,6.1-3.8V38
			c0-0.8-0.2-2.4-2.3-2.4c-0.9,0-1.9,0.3-2.6,0.8l-0.4-1.2c0.8-0.5,2.1-0.9,3.3-0.9c3.1,0,3.9,2.1,3.9,4.2v3.8c0,0.9,0,1.7,0.2,2.4
			H16.9z M16.6,39.5c-2,0-4.3,0.3-4.3,2.3c0,1.2,0.8,1.8,1.7,1.8c1.3,0,2.2-0.8,2.5-1.7c0.1-0.2,0.1-0.4,0.1-0.6V39.5z"/>
		<path d="M21.3,44.7c0-0.7,0.1-1.7,0.1-2.6V29.8h1.8v6.4h0c0.7-1.1,1.8-1.9,3.5-1.9c2.5,0,4.3,2.1,4.3,5.2c0,3.6-2.3,5.4-4.6,5.4
			c-1.5,0-2.6-0.6-3.4-1.9H23l-0.1,1.7H21.3z M23.2,40.6c0,0.2,0,0.5,0.1,0.7c0.4,1.3,1.4,2.2,2.8,2.2c1.9,0,3.1-1.6,3.1-3.9
			c0-2-1-3.8-3-3.8c-1.3,0-2.4,0.9-2.8,2.3c0,0.2-0.1,0.5-0.1,0.8V40.6z"/>
		<path d="M40.6,44.3c-0.5,0.3-1.6,0.6-2.9,0.6c-3.1,0-5.1-2.1-5.1-5.2c0-3.1,2.1-5.4,5.5-5.4c1.1,0,2.1,0.3,2.6,0.5l-0.4,1.4
			c-0.4-0.3-1.1-0.5-2.1-0.5c-2.3,0-3.6,1.7-3.6,3.8c0,2.4,1.5,3.8,3.5,3.8c1,0,1.7-0.3,2.3-0.5L40.6,44.3z"/>
	</g>
	<g>
		<path d="M20.4,18.4c-0.3,0.1-0.6,0.2-1,0.3s-0.6,0.1-0.8,0.1c-0.5,0-0.9-0.2-1.2-0.4c-0.3-0.3-0.5-0.8-0.6-1.6
			c-0.2,0.3-0.4,0.5-0.6,0.8c-0.2,0.3-0.5,0.5-0.7,0.7c-0.3,0.2-0.6,0.4-0.9,0.5c-0.3,0.1-0.7,0.2-1.1,0.2c-0.5,0-1-0.1-1.5-0.3
			c-0.5-0.2-0.9-0.6-1.3-1c-0.4-0.4-0.7-0.9-0.9-1.5c-0.2-0.6-0.3-1.3-0.3-2c0-0.7,0.1-1.3,0.3-1.9c0.2-0.6,0.5-1.1,0.9-1.6
			c0.4-0.4,0.8-0.8,1.4-1c0.5-0.2,1.1-0.4,1.6-0.4c0.7,0,1.4,0.2,1.9,0.5c0.5,0.4,0.9,0.9,1.1,1.5l0.2-1.8h1.7c0,0.4-0.1,1.1-0.3,2
			c-0.1,0.9-0.3,1.8-0.5,2.9c0,0.9,0.1,1.7,0.3,2.3c0.2,0.6,0.4,1,0.7,1.2c0.1,0.1,0.3,0.1,0.5,0.1s0.5,0,0.7,0V18.4z M16.7,13.7
			c0-0.5-0.1-0.9-0.2-1.4c-0.1-0.5-0.2-0.9-0.4-1.2c-0.2-0.4-0.4-0.7-0.7-0.9C15,10,14.6,9.8,14.1,9.8c-0.7,0-1.3,0.4-1.8,1.1
			c-0.5,0.8-0.7,1.8-0.7,3.1c0,0.5,0.1,1,0.2,1.4s0.3,0.8,0.4,1.2c0.2,0.3,0.5,0.6,0.8,0.8c0.3,0.2,0.7,0.3,1.2,0.3
			c0.8,0,1.3-0.3,1.8-1S16.6,15.1,16.7,13.7z"/>
		<path d="M29.2,11.2c0.4,0.4,0.7,0.8,0.9,1.3c0.2,0.5,0.3,1,0.3,1.6c0,1.3-0.4,2.4-1.2,3.3s-1.9,1.4-3.1,1.4c-0.5,0-1-0.1-1.4-0.2
			c-0.4-0.1-0.7-0.3-0.9-0.4h-0.1v4.5H22V9.2C22,8.3,22,7.6,22.2,7c0.1-0.5,0.5-1.1,1-1.6c0.3-0.4,0.8-0.7,1.3-0.9s1.1-0.3,1.8-0.3
			c0.5,0,0.9,0.1,1.4,0.2c0.4,0.1,0.8,0.3,1.2,0.6c0.3,0.2,0.6,0.6,0.8,0.9c0.2,0.4,0.3,0.8,0.3,1.4c0,0.5-0.1,0.9-0.3,1.3
			s-0.4,0.7-0.7,0.9c-0.3,0.2-0.6,0.4-0.9,0.5c-0.3,0.1-0.6,0.2-0.9,0.3l0,0.1c0.3,0,0.6,0.1,1,0.3C28.5,10.7,28.9,10.9,29.2,11.2z
			 M28.5,14.1c0-0.4,0-0.9-0.1-1.3c-0.1-0.4-0.2-0.8-0.4-1.1c-0.2-0.3-0.4-0.5-0.8-0.7s-0.7-0.3-1.2-0.3h-0.9V9.9h0.6
			c0.3,0,0.6,0,0.8-0.1c0.3-0.1,0.5-0.2,0.8-0.4c0.2-0.2,0.4-0.5,0.6-0.8c0.1-0.3,0.2-0.7,0.2-1.2c0-0.8-0.2-1.4-0.6-1.8
			c-0.4-0.4-0.9-0.6-1.5-0.6c-0.4,0-0.7,0.1-0.9,0.2c-0.3,0.1-0.5,0.3-0.8,0.6C24.2,6,24,6.4,23.9,6.9c-0.1,0.5-0.2,1.1-0.2,1.8v7.9
			c0.1,0.4,0.4,0.7,0.8,1c0.4,0.3,0.8,0.4,1.4,0.4c0.8,0,1.4-0.4,1.9-1.1C28.2,16.3,28.5,15.4,28.5,14.1z"/>
		<path d="M37.1,20.6c0,0.5,0,0.8-0.1,1.1s-0.1,0.5-0.2,0.6c-0.1,0.1-0.2,0.2-0.3,0.3c-0.1,0-0.2,0.1-0.4,0.1
			c-0.3,0-0.6-0.1-0.7-0.3c-0.2-0.2-0.2-0.5-0.2-0.9c0-0.4,0-0.9,0.1-1.4c0.1-0.5,0.2-1.1,0.3-1.6c-0.5-1.4-0.9-2.7-1.4-3.7
			c-0.5-1-1-2.3-1.6-3.7c-0.1-0.3-0.3-0.5-0.6-0.7c-0.3-0.1-0.6-0.2-1-0.2V9.5l2.8-0.2l0.1,0.1c0.2,0.4,0.4,1,0.7,1.6
			c0.3,0.6,0.6,1.3,0.9,2.1c0.2,0.6,0.5,1.2,0.7,2c0.2,0.8,0.4,1.4,0.4,1.8c0.2-0.5,0.5-1.1,0.7-1.7s0.5-1,0.6-1.4
			c0.2-0.4,0.3-0.7,0.3-0.9c0.1-0.2,0.1-0.4,0.1-0.6c0-0.4,0-0.8-0.1-1.1c-0.1-0.4-0.1-0.7-0.1-1c0-0.3,0.1-0.5,0.3-0.7
			c0.2-0.2,0.5-0.3,0.8-0.3c0.3,0,0.6,0.1,0.8,0.3s0.3,0.5,0.3,0.8c0,0.4-0.1,0.8-0.3,1.3c-0.2,0.4-0.4,0.9-0.7,1.4
			c-0.4,0.7-0.8,1.6-1.3,2.5c-0.5,0.9-0.9,1.8-1.2,2.7c0.1,0.6,0.1,1,0.2,1.5C37.1,20,37.1,20.4,37.1,20.6z"/>
	</g>
</g>
</svg>
