<?xml version="1.0" encoding="utf-8"?>
<!-- Generator: Adobe Illustrator 22.1.0, SVG Export Plug-In . SVG Version: 6.00 Build 0)  -->
<svg version="1.1" id="Layer_1" xmlns="http://www.w3.org/2000/svg" xmlns:xlink="http://www.w3.org/1999/xlink" x="0px" y="0px"
	 viewBox="0 0 50 50" style="enable-background:new 0 0 50 50; fill: #C86D38;" xml:space="preserve">
<g transform="translate(0,-952.36218)">
	<path d="M19.4,952.4C8.7,952.4,0,961.1,0,971.8s8.7,19.4,19.4,19.4c4.8,0,9.1-1.7,12.5-4.6l15.2,15.2c0.6,0.7,1.7,0.8,2.3,0.2
		c0.7-0.6,0.8-1.7,0.2-2.3c0-0.1-0.1-0.1-0.1-0.2l-15.2-15.2c2.8-3.4,4.6-7.7,4.6-12.5C38.8,961.1,30.1,952.4,19.4,952.4z
		 M19.4,955.7c8.9,0,16.1,7.2,16.1,16.1c0,8.9-7.2,16.1-16.1,16.1s-16.1-7.2-16.1-16.1C3.3,962.9,10.5,955.7,19.4,955.7z
		 M19.4,962.9c-0.9,0-1.7,0.8-1.6,1.7c0,0,0,0,0,0v5.5h-5.5c-0.1,0-0.1,0-0.2,0c-0.9,0-1.6,0.8-1.6,1.8c0,0.9,0.8,1.6,1.8,1.6h5.5
		v5.5c0,0.9,0.7,1.7,1.6,1.7c0.9,0,1.7-0.7,1.7-1.6c0,0,0,0,0,0v-5.5h5.5c0.9,0,1.7-0.7,1.7-1.6c0-0.9-0.7-1.7-1.6-1.7c0,0,0,0,0,0
		h-5.5v-5.5C21.1,963.6,20.4,962.9,19.4,962.9C19.4,962.9,19.4,962.9,19.4,962.9z"/>
</g>
</svg>
